<?xml version="1.0" encoding="UTF-8" standalone="no"?>
<!DOCTYPE svg PUBLIC "-//W3C//DTD SVG 1.1//EN" "http://www.w3.org/Graphics/SVG/1.1/DTD/svg11.dtd">
<svg xmlns="http://www.w3.org/2000/svg" version="1.1" viewBox="0.00 0.00 500.00 500.00">
<g stroke-width="2.00" fill="none" stroke-linecap="butt">
<path stroke="#e5fcfe" vector-effect="non-scaling-stroke" d="
  M 312.31 321.72
  C 315.55 323.46 313.37 325.27 314.56 326.97
  Q 314.81 327.33 314.72 327.75
  Q 314.23 330.01 315.78 331.84
  Q 316.14 332.28 316.10 332.84
  L 315.90 335.96"
/>
<path stroke="#edfcfe" vector-effect="non-scaling-stroke" d="
  M 276.91 318.89
  Q 277.27 317.21 279.87 315.73
  Q 279.96 315.68 279.89 315.62
  Q 279.78 315.52 279.64 315.47
  Q 279.41 315.39 279.49 315.16
  Q 280.01 313.74 278.61 313.03
  Q 278.44 312.94 278.35 312.78
  Q 278.21 312.52 278.44 312.50
  A 0.26 0.26 0.0 0 0 278.55 312.01
  Q 277.06 311.14 277.24 309.53
  Q 277.31 308.98 277.09 308.48
  L 275.49 304.73
  Q 275.24 304.14 274.62 304.29
  Q 273.76 304.49 273.42 304.03"
/>
<path stroke="#edfcfe" vector-effect="non-scaling-stroke" d="
  M 233.17 189.97
  Q 232.43 189.11 233.69 188.25
  Q 234.73 187.54 236.10 187.31
  Q 236.44 187.25 236.11 187.14
  Q 235.73 187.00 235.19 187.21
  A 0.18 0.18 0.0 0 1 234.96 186.98
  L 235.32 186.03
  Q 235.48 185.60 235.22 185.22
  L 230.66 178.66
  Q 230.45 178.35 230.09 178.47
  L 229.81 178.57
  Q 229.33 178.73 229.48 178.25
  Q 229.84 177.11 229.52 175.88"
/>
<path stroke="#e5fcfe" vector-effect="non-scaling-stroke" d="
  M 250.48 282.77
  Q 251.31 290.93 253.55 298.92
  A 0.88 0.87 85.4 0 0 254.28 299.55
  L 256.59 299.85
  Q 256.89 299.89 256.97 300.17
  Q 257.03 300.37 257.10 300.57
  Q 257.19 300.84 257.23 300.56
  L 257.30 300.08
  A 0.08 0.07 -47.2 0 1 257.45 300.07
  L 257.64 301.27"
/>
</g>
<path fill="#fbfdfe" d="
  M 312.31 321.72
  C 315.55 323.46 313.37 325.27 314.56 326.97
  Q 314.81 327.33 314.72 327.75
  Q 314.23 330.01 315.78 331.84
  Q 316.14 332.28 316.10 332.84
  L 315.90 335.96
  C 308.70 339.36 300.44 341.84 293.73 346.22
  C 264.93 365.07 232.93 365.48 205.33 345.65
  C 200.54 342.20 193.51 340.53 189.56 338.68
  Q 176.71 332.65 164.70 322.28
  C 153.10 312.27 145.07 295.23 142.63 280.39
  Q 141.78 275.20 141.77 265.42
  C 141.75 254.40 141.84 243.38 141.57 232.36
  Q 141.15 214.64 149.23 198.74
  C 152.29 192.73 157.22 184.64 162.54 179.50
  Q 172.09 170.29 183.75 163.94
  C 189.96 160.56 198.06 159.05 204.05 154.61
  Q 229.80 135.52 262.41 139.75
  Q 263.09 139.84 262.82 140.47
  Q 260.26 146.56 259.30 153.12
  Q 259.21 153.71 258.62 153.66
  Q 244.84 152.62 230.52 156.50
  C 221.02 159.08 214.17 164.58 206.44 169.95
  C 201.01 173.73 189.95 176.42 183.18 181.15
  C 171.10 189.58 161.41 202.19 157.99 216.67
  Q 156.57 222.68 156.52 236.57
  Q 156.45 254.75 156.54 272.93
  C 156.63 290.91 169.29 309.34 184.21 319.45
  C 188.61 322.43 194.43 324.36 199.59 326.46
  C 211.29 331.21 220.34 340.27 232.88 343.50
  Q 256.42 349.55 277.56 339.31
  C 282.75 336.80 289.01 331.92 294.69 329.18
  Q 298.78 327.19 312.31 321.72
  Z"
/>
<path fill="#fbfdfe" d="
  M 312.3447 157.0342
  A 8.73 8.53 104.7 0 1 306.3092 146.4254
  A 8.73 8.53 104.7 0 1 316.7753 140.1458
  A 8.73 8.53 104.7 0 1 322.8108 150.7546
  A 8.73 8.53 104.7 0 1 312.3447 157.0342
  Z
  M 320.04 148.57
  A 5.18 5.18 0.0 0 0 314.86 143.39
  A 5.18 5.18 0.0 0 0 309.68 148.57
  A 5.18 5.18 0.0 0 0 314.86 153.75
  A 5.18 5.18 0.0 0 0 320.04 148.57
  Z"
/>
<ellipse fill="#fbfdfe" cx="0.00" cy="0.00" transform="translate(314.93,148.62) rotate(100.3)" rx="4.28" ry="3.95"/>
<path fill="#cefafd" d="
  M 315.90 335.96
  L 316.10 332.84
  Q 316.14 332.28 315.78 331.84
  Q 314.23 330.01 314.72 327.75
  Q 314.81 327.33 314.56 326.97
  C 313.37 325.27 315.55 323.46 312.31 321.72
  C 325.95 313.66 337.74 300.04 341.82 284.41
  Q 343.38 278.41 343.54 265.32
  Q 343.73 250.40 343.63 235.48
  Q 343.56 223.45 341.99 217.17
  C 338.54 203.28 329.59 191.79 318.46 182.86
  C 310.43 176.41 300.30 174.37 291.81 168.57
  Q 285.04 163.94 278.67 158.80
  A 0.53 0.53 0.0 0 1 278.58 158.07
  L 285.22 149.43
  A 1.31 1.31 0.0 0 1 286.98 149.13
  Q 297.90 156.25 309.84 161.79
  Q 318.52 165.82 322.35 168.35
  C 339.35 179.60 351.42 196.02 355.91 215.88
  Q 357.56 223.22 357.72 235.72
  Q 357.95 254.24 357.48 272.73
  C 357.10 287.33 352.47 298.89 344.59 310.97
  C 337.51 321.85 327.17 329.72 315.90 335.96
  Z"
/>
<path fill="#dffbfd" d="
  M 276.91 318.89
  Q 277.27 317.21 279.87 315.73
  Q 279.96 315.68 279.89 315.62
  Q 279.78 315.52 279.64 315.47
  Q 279.41 315.39 279.49 315.16
  Q 280.01 313.74 278.61 313.03
  Q 278.44 312.94 278.35 312.78
  Q 278.21 312.52 278.44 312.50
  A 0.26 0.26 0.0 0 0 278.55 312.01
  Q 277.06 311.14 277.24 309.53
  Q 277.31 308.98 277.09 308.48
  L 275.49 304.73
  Q 275.24 304.14 274.62 304.29
  Q 273.76 304.49 273.42 304.03
  Q 284.20 299.24 294.90 294.64
  C 306.34 289.73 312.43 277.62 312.47 265.85
  Q 312.53 248.55 312.47 231.25
  C 312.43 217.51 303.33 207.98 291.11 203.22
  C 283.91 200.41 278.08 197.79 271.47 192.97
  C 259.70 184.37 246.34 182.19 233.17 189.97
  Q 232.43 189.11 233.69 188.25
  Q 234.73 187.54 236.10 187.31
  Q 236.44 187.25 236.11 187.14
  Q 235.73 187.00 235.19 187.21
  A 0.18 0.18 0.0 0 1 234.96 186.98
  L 235.32 186.03
  Q 235.48 185.60 235.22 185.22
  L 230.66 178.66
  Q 230.45 178.35 230.09 178.47
  L 229.81 178.57
  Q 229.33 178.73 229.48 178.25
  Q 229.84 177.11 229.52 175.88
  Q 243.40 168.93 257.70 171.59
  C 264.92 172.94 274.90 176.88 281.16 182.52
  Q 283.43 184.57 285.96 185.66
  C 295.23 189.63 305.34 193.21 312.92 200.09
  C 321.83 208.20 326.21 220.40 326.25 232.28
  Q 326.34 259.10 326.18 267.99
  Q 325.86 285.22 314.88 297.36
  C 305.25 308.01 289.11 311.98 276.91 318.89
  Z"
/>
<path fill="#fbfdfe" d="
  M 229.52 175.88
  Q 229.84 177.11 229.48 178.25
  Q 229.33 178.73 229.81 178.57
  L 230.09 178.47
  Q 230.45 178.35 230.66 178.66
  L 235.22 185.22
  Q 235.48 185.60 235.32 186.03
  L 234.96 186.98
  A 0.18 0.18 0.0 0 0 235.19 187.21
  Q 235.73 187.00 236.11 187.14
  Q 236.44 187.25 236.10 187.31
  Q 234.73 187.54 233.69 188.25
  Q 232.43 189.11 233.17 189.97
  Q 227.19 194.11 220.99 198.09
  C 216.74 200.81 211.53 201.85 207.07 203.81
  C 193.91 209.60 187.69 220.83 187.72 235.14
  C 187.72 239.11 188.76 245.23 187.73 250.66
  Q 187.63 251.17 187.12 251.15
  C 182.83 251.01 176.87 250.96 173.84 247.46
  A 1.43 1.39 -65.7 0 1 173.51 246.55
  Q 173.47 238.89 173.57 231.28
  C 173.88 206.98 190.10 193.28 211.99 186.83
  C 213.75 186.32 215.82 185.17 217.10 183.90
  Q 222.41 178.65 229.52 175.88
  Z"
/>
<path fill="#cefafd" d="
  M 286.64 220.47
  A 1.56 1.56 0.0 0 1 284.02 221.13
  L 274.45 211.23
  A 0.43 0.43 0.0 0 1 274.73 210.50
  Q 283.63 209.77 286.59 218.20
  Q 286.97 219.27 286.64 220.47
  Z"
/>
<path fill="#fbfdfe" d="
  M 213.27 220.37
  C 212.42 214.36 219.65 209.03 225.13 211.05
  A 0.57 0.57 0.0 0 1 225.32 212.00
  L 215.57 221.18
  A 1.37 1.37 0.0 0 1 213.27 220.37
  Z"
/>
<path fill="#dffbfd" d="
  M 273.09 225.05
  A 0.63 0.62 -7.1 0 0 273.98 225.74
  Q 275.52 224.98 277.09 225.79
  Q 277.65 226.08 277.72 226.71
  Q 278.04 229.64 276.86 232.34
  A 0.65 0.65 0.0 0 1 276.13 232.72
  C 264.55 230.31 256.53 235.94 251.15 245.85
  Q 250.89 246.33 250.60 245.86
  Q 247.50 240.73 240.82 235.95
  C 235.16 231.90 229.62 232.53 223.07 232.50
  Q 222.60 232.49 222.57 232.02
  L 222.21 226.71
  A 0.65 0.65 0.0 0 1 222.86 226.02
  L 226.00 225.99
  A 0.45 0.45 0.0 0 0 226.45 225.57
  C 226.64 222.22 228.31 220.26 231.86 220.26
  Q 250.13 220.24 268.39 220.25
  C 271.61 220.25 273.89 221.49 273.09 225.05
  Z"
/>
<path fill="#fbfdfe" d="
  M 227.01 242.26
  C 235.04 241.46 240.92 247.82 239.26 255.82
  Q 239.17 256.25 238.80 256.03
  Q 232.42 252.24 225.62 249.22
  C 221.87 247.55 223.30 242.63 227.01 242.26
  Z"
/>
<path fill="#cefafd" d="
  M 261.29 256.10
  C 258.77 246.84 267.23 240.23 276.07 242.92
  A 1.15 1.15 0.0 0 1 276.83 243.68
  C 277.45 245.65 277.18 247.07 275.33 248.19
  Q 268.58 252.29 261.82 256.32
  Q 261.41 256.56 261.29 256.10
  Z"
/>
<path fill="#fbfdfe" d="
  M 250.48 282.77
  Q 251.31 290.93 253.55 298.92
  A 0.88 0.87 85.4 0 0 254.28 299.55
  L 256.59 299.85
  Q 256.89 299.89 256.97 300.17
  Q 257.03 300.37 257.10 300.57
  Q 257.19 300.84 257.23 300.56
  L 257.30 300.08
  A 0.08 0.07 -47.2 0 1 257.45 300.07
  L 257.64 301.27
  L 257.90 311.68
  Q 257.92 312.32 258.49 312.02
  L 273.42 304.03
  Q 273.76 304.49 274.62 304.29
  Q 275.24 304.14 275.49 304.73
  L 277.09 308.48
  Q 277.31 308.98 277.24 309.53
  Q 277.06 311.14 278.55 312.01
  A 0.26 0.26 0.0 0 1 278.44 312.50
  Q 278.21 312.52 278.35 312.78
  Q 278.44 312.94 278.61 313.03
  Q 280.01 313.74 279.49 315.16
  Q 279.41 315.39 279.64 315.47
  Q 279.78 315.52 279.89 315.62
  Q 279.96 315.68 279.87 315.73
  Q 277.27 317.21 276.91 318.89
  C 257.49 332.37 241.41 330.47 221.75 318.19
  C 210.76 311.33 197.30 308.33 187.55 299.68
  Q 174.97 288.51 174.57 271.49
  Q 174.55 270.47 175.52 270.74
  L 187.73 274.04
  Q 188.18 274.16 188.33 274.61
  C 192.80 288.77 200.63 291.70 214.98 298.39
  Q 228.37 304.63 241.38 311.87
  Q 242.41 312.44 242.45 311.26
  C 242.77 303.28 242.93 294.69 238.18 287.80
  C 232.71 279.87 220.18 274.59 210.81 271.50
  C 201.94 268.58 204.23 259.75 204.26 252.73
  Q 204.26 252.10 204.83 252.39
  C 219.67 260.18 233.62 262.21 245.04 274.45
  C 247.29 276.85 248.78 279.88 250.48 282.77
  Z"
/>
<path fill="#cefafd" d="
  M 257.64 301.27
  L 257.45 300.07
  A 0.08 0.07 -47.2 0 0 257.30 300.08
  L 257.23 300.56
  Q 257.19 300.84 257.10 300.57
  Q 257.03 300.37 256.97 300.17
  Q 256.89 299.89 256.59 299.85
  L 254.28 299.55
  A 0.88 0.87 85.4 0 1 253.55 298.92
  Q 251.31 290.93 250.48 282.77
  Q 258.46 266.68 275.26 261.27
  C 283.23 258.70 288.23 256.42 294.50 252.40
  Q 295.82 251.56 295.78 253.12
  C 295.69 256.28 296.58 262.99 294.80 265.66
  Q 292.05 269.80 287.69 271.23
  C 272.80 276.12 258.25 284.13 257.64 301.27
  Z"
/>
</svg>
